<svg xmlns="http://www.w3.org/2000/svg" viewBox="0 96 960 960">
    <svg id="icon-logo" xmlns="http://www.w3.org/2000/svg" width="46" height="58" viewBox="0 0 46 58" fill="none">
        <path d="M39.6429 0.0596055C39.8777 0.407164 40.0287 0.803926 40.0844 1.21906C40.1401 1.63419 40.0989 2.05651 39.9639 2.4532C39.4527 6.26023 37.8294 9.83392 35.2954 12.7305C34.9201 13.1331 34.5883 13.5755 34.221 13.9859C32.9466 15.3951 32.0955 17.1324 31.7649 18.9997C31.6742 19.4288 31.533 19.8457 31.3443 20.2418C31.2707 20.4359 31.1374 20.6019 30.9634 20.7162C30.7894 20.8304 30.5837 20.8871 30.3755 20.8781C30.1761 20.8613 29.9874 20.7816 29.8369 20.6505C29.6863 20.5194 29.5817 20.3439 29.5385 20.1495C29.4296 19.8553 29.3517 19.5507 29.3058 19.2406C29.062 17.9455 29.1169 16.6122 29.4664 15.3414C29.8159 14.0705 30.451 12.8954 31.3236 11.9046C32.3218 10.7708 33.3278 9.64393 34.3417 8.52386C35.9344 6.79005 37.094 4.70691 37.7266 2.44345C37.7724 2.27707 37.818 2.11043 37.8702 1.94585C38.0416 1.17346 38.5071 0.4973 39.169 0.059567C39.2417 0.0201524 39.3232 -0.000495009 39.4059 -0.00048828C39.4887 -0.00048155 39.5702 0.0201791 39.6429 0.0596055Z" fill="#B70A06"/>
        <path d="M6.83955 0.0594719C7.16271 0.270749 7.44022 0.544171 7.65576 0.863682C7.87131 1.18319 8.02055 1.54235 8.09472 1.92007C8.95199 4.99659 10.6319 7.78385 12.9553 9.98472C14.1088 11.0855 15.0996 12.3435 15.8982 13.7212C16.8309 15.5992 17.0697 17.7442 16.5726 19.78C16.4733 20.2901 16.2637 20.8034 15.6246 20.8782C15.1515 20.9335 14.6944 20.5415 14.4643 19.8677C14.3121 19.4217 14.1924 18.9653 14.1063 18.5021C13.6622 16.5071 12.6334 14.688 11.1499 13.2755C8.431 10.3253 6.65697 6.63547 6.05435 2.67704C5.96227 2.08735 5.94439 1.48854 6.00113 0.894445C5.99784 0.737358 6.02869 0.581419 6.09157 0.437305C6.15445 0.293191 6.24787 0.164305 6.36544 0.0594719C6.51746 -0.00192034 6.68753 -0.00192034 6.83955 0.0594719Z" fill="#B70A06"/>
        <path d="M0.00247145 41.1437C0.0274316 39.2918 0.638917 37.495 1.7498 36.0093C2.38938 35.1208 3.17316 34.3346 3.90013 33.5093C4.14937 33.2265 4.44421 32.9818 4.68158 32.6901C4.95656 32.4201 5.11624 32.0548 5.12734 31.6705C5.13843 31.2861 5.00008 30.9124 4.74113 30.6271C4.33875 30.0546 3.74877 29.6393 3.07241 29.4525C2.89005 29.4022 2.70513 29.3614 2.52368 29.3086C2.19533 29.213 1.93913 29.0375 1.96127 28.656C1.96871 28.4955 2.03552 28.3435 2.14884 28.2291C2.26216 28.1147 2.41398 28.0461 2.57507 28.0364C3.29476 27.9034 4.03734 27.9703 4.72139 28.2296C5.40544 28.489 6.00454 28.9308 6.45299 29.5067C6.93636 29.9958 7.24034 30.6326 7.31599 31.3145C7.39163 31.9965 7.23455 32.6839 6.87002 33.2662C6.31491 34.1414 5.68101 34.9646 4.97615 35.7255C4.0465 36.6687 3.27494 37.7543 2.69092 38.9409C2.34012 39.6116 2.17291 40.3624 2.20612 41.1179C2.23934 41.8733 2.47179 42.6068 2.88012 43.2444C3.28844 43.882 3.85823 44.4014 4.53219 44.7503C5.20615 45.0992 5.96051 45.2652 6.7194 45.2318C8.11145 45.2602 9.49637 45.0268 10.8014 44.5438C12.7997 43.749 15.0147 43.6768 17.061 44.3396C17.8912 44.6268 18.7472 44.9251 19.5701 45.2424C21.751 46.0725 24.1596 46.0914 26.3533 45.2955C27.2797 44.9022 28.2258 44.5568 29.1879 44.2607C30.9323 43.7001 32.8163 43.7468 34.5306 44.3931C36.1229 45.0142 37.825 45.3083 39.5344 45.2578C40.5308 45.2463 41.4932 44.8962 42.2624 44.2657C43.0316 43.6352 43.5613 42.762 43.7639 41.7909C43.9569 40.777 43.7941 39.7278 43.3029 38.8191C42.5672 37.4971 41.6336 36.2943 40.5344 35.2519C39.7798 34.5761 39.2183 33.7136 38.9069 32.7519C38.7634 32.2217 38.7377 31.6667 38.8316 31.1256C38.9254 30.5844 39.1367 30.0702 39.4505 29.6186C39.7644 29.167 40.1734 28.7889 40.649 28.5107C41.1246 28.2325 41.6554 28.0608 42.2044 28.0076C42.6062 27.9384 43.0177 27.9488 43.4154 28.0382C43.5479 28.0848 43.6672 28.1626 43.7631 28.2648C43.859 28.3671 43.9286 28.4909 43.9662 28.6257C43.9846 28.8373 43.7208 29.1255 43.5099 29.2892C43.3091 29.4449 42.9938 29.446 42.7686 29.5809C42.2428 29.8505 41.752 30.1829 41.3069 30.5706C41.155 30.7061 41.0339 30.8724 40.9519 31.0583C40.8698 31.2441 40.8286 31.4453 40.8311 31.6483C40.8336 31.8514 40.8796 32.0515 40.9662 32.2354C41.0527 32.4192 41.1778 32.5825 41.3329 32.7143C41.7836 33.1979 42.2805 33.6387 42.7307 34.1226C44.2546 35.624 45.331 37.5162 45.8406 39.5894C46.1693 40.944 46.0677 42.3667 45.5498 43.6613C45.0318 44.956 44.1232 46.0587 42.949 46.8176C41.508 47.6355 39.8372 47.9602 38.1929 47.742C36.5835 47.5698 34.9887 47.2363 33.3987 46.918C32.107 46.6404 30.7579 46.8395 29.6026 47.4783C28.454 48.161 27.2475 48.7421 25.9969 49.215C24.7711 49.6188 23.4768 49.7755 22.1896 49.6759C20.9023 49.5763 19.6479 49.2223 18.4996 48.6348C17.9547 48.3854 17.4258 48.1026 16.9162 47.7879C16.1819 47.322 15.3559 47.018 14.4938 46.8964C13.6317 46.7748 12.7534 46.8384 11.918 47.0829C10.1386 47.5893 8.28779 47.8014 6.43938 47.7108C5.48115 47.6928 4.53742 47.4744 3.66954 47.0696C2.80167 46.6649 2.02905 46.0829 1.40191 45.3614C0.455489 44.1611 -0.0395534 42.6691 0.00247145 41.1437Z" fill="#B70A06"/>
        <path d="M22.9926 23.9062C23.353 23.0073 24.0266 22.2676 24.8902 21.8228C25.7537 21.3779 26.7493 21.2575 27.6947 21.4838C27.8826 21.5036 28.0612 21.5752 28.2106 21.6905C28.3599 21.8058 28.474 21.9602 28.5401 22.1364C28.6062 22.3126 28.6217 22.5036 28.5848 22.6881C28.5479 22.8726 28.4602 23.0432 28.3313 23.1808C27.9156 23.6005 27.4508 23.969 26.9469 24.2785C26.8491 24.3517 26.6585 24.3507 26.6139 24.4368C26.4884 24.7082 26.3786 24.9866 26.285 25.2705C26.5333 25.3572 26.7939 25.5382 27.027 25.5082C27.3705 25.4567 27.697 25.3259 27.9805 25.1261C28.6776 24.669 29.3387 24.1599 29.9583 23.6032C31.905 21.5718 34.2894 20.0067 36.9319 19.0257C38.7272 18.3578 40.3694 17.3376 41.7609 16.0258C42.0433 15.7742 42.3419 15.5413 42.6548 15.3284C42.759 15.2499 42.8826 15.201 43.0125 15.1867C43.1424 15.1725 43.2737 15.1936 43.3926 15.2477C43.5114 15.3018 43.6133 15.387 43.6875 15.4941C43.7616 15.6013 43.8052 15.7264 43.8137 15.8562C43.8432 16.1671 43.7893 16.4803 43.6574 16.7636C42.9187 18.3621 41.6749 19.6761 40.1158 20.505C39.3709 20.8829 38.6243 21.2572 37.8758 21.6278C36.2674 22.4402 34.8237 23.5414 33.6173 24.876C32.3792 26.3117 30.8807 27.5025 29.2 28.3863C28.3563 28.8244 27.4115 29.033 26.4609 28.9911C25.705 29.004 24.9647 28.776 24.3482 28.3404C23.7317 27.9049 23.2712 27.2845 23.034 26.5699C22.7953 27.0104 22.5179 27.4289 22.205 27.8206C21.6494 28.3884 20.939 28.7818 20.1615 28.9524C19.3839 29.123 18.5732 29.0632 17.8294 28.7806C16.1618 28.2162 14.6611 27.2486 13.4619 25.9645C12.5203 24.9498 11.5116 23.9987 10.4428 23.1178C9.0772 22.1874 7.64032 21.3653 6.14537 20.659C4.5753 19.859 3.29031 18.5977 2.46462 17.0462C2.29377 16.8006 2.19018 16.5149 2.16406 16.2173C2.18401 15.8869 2.31077 15.5719 2.52541 15.3192C2.77942 15.0409 3.14051 15.1573 3.42466 15.3832C3.88129 15.7461 4.34156 16.1051 4.78319 16.4855C6.03052 17.6038 7.4866 18.467 9.06855 19.026C11.68 19.9998 14.0385 21.5447 15.9701 23.5469C16.5909 24.1021 17.2474 24.6162 17.9356 25.086C18.1842 25.2523 18.4569 25.3798 18.7443 25.4639C19.0921 25.5795 19.4808 25.6752 19.6971 25.2514C19.8438 24.9636 19.5404 24.5094 19.159 24.3185C18.8018 24.1554 18.4615 23.9578 18.143 23.7287C17.8965 23.5336 17.6931 23.2901 17.5454 23.0134C17.4572 22.8758 17.4044 22.7188 17.3917 22.5561C17.3789 22.3934 17.4067 22.2301 17.4724 22.0806C17.5381 21.9312 17.6398 21.8001 17.7685 21.699C17.8972 21.598 18.0489 21.53 18.2102 21.5012C19.1083 21.2601 20.0627 21.3379 20.9093 21.7213C21.756 22.1047 22.442 22.7697 22.8495 23.6021C22.8837 23.6879 22.9278 23.7697 22.9926 23.9062Z" fill="#B70A06"/>
        <path d="M31.9625 30.9324C32.3706 30.5784 32.6433 30.0947 32.7342 29.5635C32.8251 29.0322 32.7286 28.486 32.4612 28.0175C32.4216 27.9596 32.3942 27.8943 32.3808 27.8255C32.3674 27.7567 32.3682 27.686 32.3832 27.6176C32.3982 27.5491 32.4271 27.4844 32.468 27.4275C32.509 27.3705 32.5611 27.3225 32.6214 27.2863C33.706 26.4963 34.6758 25.5609 35.5031 24.5067C35.6071 24.3598 35.9221 24.2113 36.0493 24.2672C36.1428 24.3265 36.2222 24.4054 36.282 24.4984C36.3418 24.5914 36.3804 24.6963 36.3953 24.8057C36.6464 26.8303 36.3059 28.884 35.4147 30.721C35.2531 31.1305 34.981 31.4877 34.6286 31.7533C34.2761 32.0188 33.8568 32.1824 33.417 32.2259C32.3285 32.361 31.2692 32.7154 30.1875 32.924C29.8077 33.0133 29.4108 33.0001 29.0378 32.8858C28.568 32.6948 28.1429 32.4094 27.7889 32.0476C27.4348 31.6857 27.1596 31.255 26.9802 30.7825C26.8198 30.4072 26.9516 30.1864 27.3697 30.1034C28.4186 29.8699 29.4205 29.4621 30.3333 28.897C30.8698 28.5836 31.1196 28.706 31.1851 29.3097C31.2694 29.9176 31.541 30.4846 31.9625 30.9324Z" fill="#B70A06"/>
        <path d="M14.0191 30.9305C14.4498 30.4889 14.726 29.9208 14.8065 29.3105C14.8798 28.7188 15.1099 28.5823 15.6092 28.873C16.5478 29.4533 17.5775 29.8729 18.6555 30.1143C19.0675 30.1964 19.1591 30.4114 18.9906 30.8131C18.6451 31.6486 18.0235 32.3418 17.2286 32.778C17.0001 32.901 16.7492 32.977 16.4906 33.0016C16.232 33.0262 15.971 32.9988 15.7233 32.9211C14.594 32.6393 13.46 32.3624 12.3132 32.1697C12.0248 32.1329 11.7482 32.0328 11.5033 31.8767C11.2585 31.7206 11.0515 31.5124 10.8973 31.267C10.1557 30.092 9.71486 28.754 9.61337 27.37C9.5546 26.5114 9.55098 25.6499 9.60255 24.7908C9.60847 24.6084 9.7684 24.3086 9.90087 24.2826C10.0113 24.2732 10.1223 24.2897 10.2252 24.3306C10.3281 24.3714 10.4201 24.4357 10.4937 24.5181C11.3216 25.5697 12.291 26.5027 13.3748 27.2909C13.4341 27.3287 13.4851 27.378 13.5247 27.4359C13.5643 27.4938 13.5918 27.5591 13.6054 27.6278C13.619 27.6966 13.6185 27.7674 13.6039 27.8359C13.5893 27.9044 13.5609 27.9693 13.5204 28.0267C13.2574 28.4945 13.1634 29.0379 13.2541 29.5663C13.3449 30.0947 13.6149 30.5762 14.0191 30.9305Z" fill="#B70A06"/>
        <path d="M33.4227 39.5495C33.4191 40.4527 33.1815 41.3397 32.7328 42.1246C32.6011 42.3766 32.4159 42.597 32.19 42.7706C31.9642 42.9442 31.7031 43.0668 31.4249 43.1299C31.1788 43.1926 30.9196 43.1818 30.6795 43.099C30.4395 43.0161 30.2292 42.8648 30.0749 42.6639C29.9455 42.4457 29.8861 42.1934 29.9046 41.9407C29.9232 41.688 30.0188 41.4469 30.1788 41.2498C30.4375 40.8414 30.5248 40.3482 30.4219 39.8764C30.3721 39.7555 30.2988 39.6456 30.2061 39.5531C30.1135 39.4606 30.0033 39.3872 29.882 39.3372C29.7608 39.2873 29.6307 39.2617 29.4995 39.262C29.3682 39.2623 29.2383 39.2884 29.1173 39.3389C27.6711 39.8294 26.9095 41.9169 26.5143 42.3375C26.3475 42.5839 26.1081 42.7729 25.829 42.8782C25.5499 42.9835 25.2448 43 24.9559 42.9254C24.8306 42.901 24.7119 42.8505 24.6076 42.7774C24.5033 42.7042 24.4156 42.61 24.3503 42.5008C24.2851 42.3916 24.2436 42.27 24.2288 42.1438C24.214 42.0176 24.226 41.8898 24.2642 41.7685C24.3689 41.3432 24.5544 40.9417 24.8109 40.5859C25.8644 39.2038 27.2066 38.0656 28.7448 37.2498C29.2056 37.0108 29.7041 36.8519 30.2187 36.7801C30.6184 36.7148 31.0277 36.738 31.4174 36.848C31.8071 36.958 32.1676 37.1521 32.4735 37.4165C32.7793 37.6808 33.0229 38.009 33.187 38.3777C33.351 38.7463 33.4315 39.1464 33.4227 39.5495Z" fill="#B70A06"/>
        <path d="M12.5749 39.5495C12.5784 40.4527 12.816 41.3396 13.2646 42.1246C13.3963 42.3766 13.5815 42.597 13.8074 42.7706C14.0332 42.9442 14.2943 43.0667 14.5725 43.1299C14.8186 43.1926 15.0779 43.1818 15.3179 43.099C15.558 43.0161 15.7683 42.8648 15.9226 42.6639C16.052 42.4457 16.1114 42.1934 16.0928 41.9407C16.0743 41.6879 15.9786 41.4469 15.8186 41.2498C15.5599 40.8414 15.4726 40.3482 15.5755 39.8764C15.6253 39.7555 15.6986 39.6456 15.7913 39.5531C15.8839 39.4606 15.9941 39.3872 16.1154 39.3372C16.2366 39.2873 16.3667 39.2617 16.4979 39.262C16.6292 39.2623 16.7591 39.2884 16.8801 39.3389C18.3263 39.8294 19.0879 41.9169 19.4832 42.3375C19.6499 42.5839 19.8893 42.7728 20.1684 42.8781C20.4475 42.9834 20.7526 42.9999 21.0415 42.9254C21.1667 42.901 21.2854 42.8505 21.3897 42.7774C21.4941 42.7042 21.5817 42.61 21.647 42.5008C21.7123 42.3916 21.7537 42.27 21.7685 42.1438C21.7834 42.0176 21.7713 41.8898 21.7331 41.7685C21.6285 41.3432 21.4429 40.9417 21.1864 40.5859C20.1329 39.2038 18.7907 38.0656 17.2525 37.2498C16.7917 37.0108 16.2933 36.8519 15.7787 36.7801C15.379 36.7148 14.9698 36.738 14.5801 36.848C14.1904 36.958 13.8298 37.1521 13.524 37.4165C13.2182 37.6808 12.9746 38.009 12.8105 38.3777C12.6465 38.7463 12.566 39.1464 12.5749 39.5495Z" fill="#B70A06"/>
        <path d="M25.597 36.7792C25.2294 36.4244 24.785 36.1581 24.2979 36.0009C23.8108 35.8436 23.294 35.7997 22.7872 35.8723C22.4412 35.8894 22.0968 35.9302 21.7564 35.9945C21.3151 36.0358 20.9082 36.2493 20.6244 36.5882C20.368 36.9025 20.0107 37.1194 19.6126 37.2024C19.2145 37.2854 18.7998 37.2294 18.4383 37.0438C18.2822 36.975 18.1426 36.874 18.0285 36.7475C17.9145 36.6211 17.8286 36.4721 17.7765 36.3103C17.7244 36.1484 17.7073 35.9775 17.7263 35.8086C17.7453 35.6397 17.8 35.4767 17.8867 35.3304L17.9102 35.2895C18.6681 34.0384 19.8665 33.1128 21.2722 32.6928C22.6778 32.2727 24.1902 32.3883 25.515 33.017C26.4427 33.5654 27.2899 34.2389 28.0323 35.0183C28.1911 35.2275 28.2852 35.4781 28.3033 35.7397C28.3214 36.0012 28.2626 36.2624 28.1341 36.4912C27.9932 36.6849 27.8132 36.8472 27.6058 36.9678C27.3984 37.0884 27.168 37.1647 26.9293 37.1918C26.6906 37.2188 26.4489 37.1962 26.2195 37.1251C25.9901 37.0541 25.7781 36.9363 25.597 36.7792Z" fill="#B70A06"/>
        <path d="M15.477 51.6185C15.5889 52.063 15.7496 52.4939 15.9563 52.9033C16.0829 53.2743 16.1926 53.6619 15.6663 53.9417C15.4171 54.0341 15.1492 54.0652 14.8853 54.0322C14.6215 53.9992 14.3695 53.9032 14.151 53.7524C13.7285 53.557 13.351 53.2772 13.0419 52.9304C12.7327 52.5836 12.4986 52.1771 12.3541 51.7363C12.0182 50.9226 11.8804 50.0413 11.952 49.1644C12.0878 48.4177 13.2179 47.7528 14.2784 47.7853C15.0853 47.8101 15.5064 48.1207 15.5045 48.6897C15.504 48.823 15.5044 48.9562 15.5044 49.0893C15.4403 49.9309 15.4311 50.7758 15.477 51.6185Z" fill="#B70A06"/>
        <path d="M34.1522 49.7706C34.077 50.529 33.8731 51.2693 33.5492 51.9599C33.3887 52.3677 33.1479 52.7395 32.8409 53.0532C32.5338 53.367 32.1669 53.6164 31.7615 53.7868C31.5065 53.9123 31.2328 53.9961 30.9509 54.0349C30.4174 54.1054 29.9766 53.8797 29.9766 53.4979C29.9778 53.1371 30.0625 52.7815 30.2242 52.4587C30.5904 51.7025 30.7219 50.8549 30.6022 50.024C30.5505 49.5585 30.4952 49.0923 30.4785 48.6259C30.462 48.1657 30.8272 47.8824 31.471 47.8062C32.6264 47.6696 33.9321 48.3706 34.0477 49.1938C34.1216 49.377 34.1571 49.5732 34.1522 49.7706Z" fill="#B70A06"/>
        <path d="M28.3477 56.9853C28.5733 56.8171 28.7561 56.5987 28.8816 56.3476C29.0072 56.0964 29.0719 55.8195 29.0705 55.539C29.0932 54.5742 28.8033 53.6277 28.2439 52.8396C27.812 52.162 27.1884 52.1735 26.8861 52.9157C26.6681 53.5313 26.5265 54.1712 26.4644 54.821C26.4223 55.119 26.3241 55.206 26.0238 55.2472C23.9534 55.5421 21.8517 55.5466 19.78 55.2604C19.4379 55.2118 19.3777 55.0962 19.3313 54.7956C19.2546 54.1142 19.0986 53.4441 18.8665 52.7985C18.8346 52.6657 18.7611 52.5464 18.6567 52.4579C18.5523 52.3693 18.4222 52.3161 18.2854 52.306C18.1486 52.2958 18.0121 52.3292 17.8956 52.4014C17.7791 52.4736 17.6887 52.5807 17.6374 52.7074C17.1687 53.5667 16.8993 54.5197 16.8492 55.4963C16.8092 55.8073 16.8602 56.1231 16.996 56.4059C17.1317 56.6887 17.3465 56.9266 17.6146 57.091C20.4963 58.4677 26.3161 58.1574 28.3477 56.9853Z" fill="#B70A06"/>
    </svg>

    <symbol id="icon-search" viewBox="0 0 24 24" xmlns="http://www.w3.org/2000/svg">
        <path fill-rule="evenodd" clip-rule="evenodd" d="M10.5 18C14.6421 18 18 14.6421 18 10.5C18 6.35786 14.6421 3 10.5 3C6.35786 3 3 6.35786 3 10.5C3 14.6421 6.35786 18 10.5 18Z" stroke="#BDBDBD" stroke-width="2" stroke-linecap="round" stroke-linejoin="round"/>
        <path d="M21 21L15.8 15.8" stroke="#BDBDBD" stroke-width="2" stroke-linecap="round" stroke-linejoin="round"/>
    </symbol>

    <symbol id="icon-profile" viewBox="0 0 25 24" xmlns="http://www.w3.org/2000/svg">
        <path d="M20.5 21V19C20.5 16.7909 18.7091 15 16.5 15H8.5C6.29086 15 4.5 16.7909 4.5 19V21" stroke="#B70A06" stroke-width="2" stroke-linecap="round" stroke-linejoin="round"/>
        <path fill-rule="evenodd" clip-rule="evenodd" d="M12.5 11C14.7091 11 16.5 9.20914 16.5 7C16.5 4.79086 14.7091 3 12.5 3C10.2909 3 8.5 4.79086 8.5 7C8.5 9.20914 10.2909 11 12.5 11Z" stroke="#B70A06" stroke-width="2" stroke-linecap="round" stroke-linejoin="round"/>
    </symbol>

    <symbol id="icon-heart" viewBox="0 0 24 24" xmlns="http://www.w3.org/2000/svg">
        <path fill-rule="evenodd" clip-rule="evenodd" d="M20.8401 4.61012C19.8086 3.57811 18.4093 2.99829 16.9501 2.99829C15.491 2.99829 14.0916 3.57811 13.0601 4.61012L12.0001 5.67012L10.9401 4.61012C8.79173 2.46173 5.30851 2.46173 3.16012 4.61012C1.01173 6.7585 1.01173 10.2417 3.16012 12.3901L4.22012 13.4501L12.0001 21.2301L19.7801 13.4501L20.8401 12.3901C21.8721 11.3586 22.4519 9.95925 22.4519 8.50012C22.4519 7.04098 21.8721 5.64164 20.8401 4.61012Z" stroke="#B70A06" stroke-width="2" stroke-linecap="round" stroke-linejoin="round"/>
    </symbol>

    <symbol id="icon-basket" viewBox="0 0 24 24" xmlns="http://www.w3.org/2000/svg">
        <path fill-rule="evenodd" clip-rule="evenodd" d="M8 23C9.10457 23 10 22.1046 10 21C10 19.8954 9.10457 19 8 19C6.89543 19 6 19.8954 6 21C6 22.1046 6.89543 23 8 23Z" stroke="#B70A06" stroke-width="2" stroke-linecap="round" stroke-linejoin="round"/>
        <path fill-rule="evenodd" clip-rule="evenodd" d="M20 23C21.1046 23 22 22.1046 22 21C22 19.8954 21.1046 19 20 19C18.8954 19 18 19.8954 18 21C18 22.1046 18.8954 23 20 23Z" stroke="#B70A06" stroke-width="2" stroke-linecap="round" stroke-linejoin="round"/>
        <path d="M5.67 6H23L21.32 14.39C21.1313 15.3402 20.2886 16.0186 19.32 16H8.75C7.73948 16.0086 6.88134 15.262 6.75 14.26L5.23 2.74C5.09962 1.7456 4.25291 1.00152 3.25 1H1" stroke="#B70A06" stroke-width="2" stroke-linecap="round" stroke-linejoin="round"/>
    </symbol>

    <symbol id="icon-arrow-down-red" viewBox="0 0 24 22" xmlns="http://www.w3.org/2000/svg">
        <path d="M6 8.46167L12 13.5386L18 8.46167" stroke="#B70A06" stroke-width="2" stroke-linecap="round" stroke-linejoin="round"/>
    </symbol>

    <symbol id="icon-arrow-up-red" viewBox="0 0 24 24" xmlns="http://www.w3.org/2000/svg">
        <path d="M 6 13.5 L 12 8.5 L 18 13.5" stroke="#B70A06" stroke-width="2" stroke-linecap="round" stroke-linejoin="round"/>
    </symbol>

    <symbol id="icon-arrow-down-grey" viewBox="0 0 24 22" xmlns="http://www.w3.org/2000/svg">
        <path d="M6 8.46167L12 13.5386L18 8.46167" stroke="rgba(30, 30, 30, 0.5)" stroke-width="2" stroke-linecap="round" stroke-linejoin="round"/>
    </symbol>

    <symbol id="icon-arrow-up-grey" viewBox="0 0 24 24" xmlns="http://www.w3.org/2000/svg">
        <path d="M 6 13.5 L 12 8.5 L 18 13.5" stroke="rgba(30, 30, 30, 0.5)" stroke-width="2" stroke-linecap="round" stroke-linejoin="round"/>
    </symbol>

    <symbol id="icon-arrow-left" viewBox="0 0 27 25" fill="none" xmlns="http://www.w3.org/2000/svg">
        <path d="M16.521 6.21497L10.0864 12.2182L16.521 18.2214" stroke-width="2" stroke-linecap="round" stroke-linejoin="round"/>
    </symbol>

    <symbol id="icon-arrow-right" viewBox="0 0 26 25" fill="none" xmlns="http://www.w3.org/2000/svg">
        <path d="M9.65845 18.2214L16.0931 12.2182L9.65845 6.21502" stroke-width="2" stroke-linecap="round" stroke-linejoin="round"/>
    </symbol>

    <symbol id="icon-list-1" viewBox="0 0 20 20" xmlns="http://www.w3.org/2000/svg">
        <path fill-rule="evenodd" clip-rule="evenodd" d="M11.6654 1.66675H4.9987C4.07822 1.66675 3.33203 2.41294 3.33203 3.33341V16.6667C3.33203 17.5872 4.07822 18.3334 4.9987 18.3334H14.9987C15.9192 18.3334 16.6654 17.5872 16.6654 16.6667V6.66675L11.6654 1.66675Z" stroke="#B70A06" stroke-width="2" stroke-linecap="round" stroke-linejoin="round"/>
        <path d="M11.668 1.66675V6.66675H16.668" stroke="#B70A06" stroke-width="2" stroke-linecap="round" stroke-linejoin="round"/>
        <path d="M13.3346 10.8335H6.66797" stroke="#B70A06" stroke-width="2" stroke-linecap="round" stroke-linejoin="round"/>
        <path d="M13.3346 14.1667H6.66797" stroke="#B70A06" stroke-width="2" stroke-linecap="round" stroke-linejoin="round"/>
        <path d="M8.33464 7.5H7.5013H6.66797" stroke="#B70A06" stroke-width="2" stroke-linecap="round" stroke-linejoin="round"/>
    </symbol>

    <symbol id="icon-list-2" viewBox="0 0 20 20" xmlns="http://www.w3.org/2000/svg">
        <path d="M2.5 10H17.5" stroke="#B70A06" stroke-width="2" stroke-linecap="round" stroke-linejoin="round"/>
        <path d="M2.5 5H17.5" stroke="#B70A06" stroke-width="2" stroke-linecap="round" stroke-linejoin="round"/>
        <path d="M2.5 15H17.5" stroke="#B70A06" stroke-width="2" stroke-linecap="round" stroke-linejoin="round"/>
    </symbol>

    <symbol id="icon-location" viewBox="0 0 20 20" xmlns="http://www.w3.org/2000/svg">
        <path fill-rule="evenodd" clip-rule="evenodd" d="M16 8.72727C16 13.1818 10 17 10 17C10 17 4 13.1818 4 8.72727C4 5.56419 6.68629 3 10 3C13.3137 3 16 5.56419 16 8.72727V8.72727Z" stroke="#B70A06" stroke-width="2" stroke-linecap="round" stroke-linejoin="round"/>
        <path fill-rule="evenodd" clip-rule="evenodd" d="M10 11C11.1046 11 12 10.1046 12 9C12 7.89543 11.1046 7 10 7C8.89543 7 8 7.89543 8 9C8 10.1046 8.89543 11 10 11Z" stroke="#B70A06" stroke-width="2" stroke-linecap="round" stroke-linejoin="round"/>
    </symbol>

    <symbol id="icon-block-1" fill="none" viewBox="0 0 17 18" xmlns="http://www.w3.org/2000/svg">
        <rect x="16" y="16.5" width="15" height="3" transform="rotate(-180 16 16.5)" stroke-width="2" stroke-linecap="round" stroke-linejoin="round"/>
        <rect x="16" y="10.5" width="15" height="3" transform="rotate(-180 16 10.5)" stroke-width="2" stroke-linecap="round" stroke-linejoin="round"/>
        <rect x="16" y="4.5" width="15" height="3" transform="rotate(-180 16 4.5)" stroke-width="2" stroke-linecap="round" stroke-linejoin="round"/>
    </symbol>

    <symbol id="icon-block-2" fill="none" viewBox="0 0 17 18" xmlns="http://www.w3.org/2000/svg">
        <rect x="16" y="16.5" width="6" height="6" transform="rotate(-180 16 16.5)" stroke-width="2" stroke-linecap="round" stroke-linejoin="round"/>
        <rect x="16" y="7.5" width="6" height="6" transform="rotate(-180 16 7.5)" stroke-width="2" stroke-linecap="round" stroke-linejoin="round"/>
        <rect x="7" y="16.5" width="6" height="6" transform="rotate(-180 7 16.5)" stroke-width="2" stroke-linecap="round" stroke-linejoin="round"/>
        <rect x="7" y="7.5" width="6" height="6" transform="rotate(-180 7 7.5)" stroke-width="2" stroke-linecap="round" stroke-linejoin="round"/>
    </symbol>

    <symbol id="icon-no-content" fill="none" viewBox="0 0 24 24" xmlns="http://www.w3.org/2000/svg">
        <g clip-path="url(#clip0_56_14895)">
            <path d="M19.35 10.04C18.67 6.59 15.64 4 12 4C10.52 4 9.15 4.43 7.99 5.17L9.45 6.63C10.21 6.23 11.08 6 12 6C15.04 6 17.5 8.46 17.5 11.5V12H19C20.66 12 22 13.34 22 15C22 16.13 21.36 17.11 20.44 17.62L21.89 19.07C23.16 18.16 24 16.68 24 15C24 12.36 21.95 10.22 19.35 10.04ZM3 5.27L5.75 8.01C2.56 8.15 0 10.77 0 14C0 17.31 2.69 20 6 20H17.73L19.73 22L21 20.73L4.27 4L3 5.27ZM7.73 10L15.73 18H6C3.79 18 2 16.21 2 14C2 11.79 3.79 10 6 10H7.73Z" fill="#323232"/>
        </g>
        <defs>
            <clipPath id="clip0_56_14895">
                <rect width="12" height="24" fill="white"/>
            </clipPath>
        </defs>
    </symbol>

    <symbol id="icon-empty-block" fill="none" viewBox="0 0 24 24" xmlns="http://www.w3.org/2000/svg">
        <rect x="0.5" y="0.5" width="23" height="23" rx="7.5" stroke="#BDBDBD"/>
    </symbol>
</svg>
